<mxfile host="app.diagrams.net" modified="2024-07-03T10:48:53.240Z" agent="Mozilla/5.0 (Windows NT 10.0; Win64; x64) AppleWebKit/537.36 (KHTML, like Gecko) Chrome/126.0.0.0 Safari/537.36 Edg/126.0.0.0" etag="nrDAxGLtsbRNd4Mjxlog" version="24.6.4" type="github">
  <diagram name="Page-1" id="fLSt-szE4dqBnh2-QQU7">
    <mxGraphModel dx="2342" dy="1840" grid="1" gridSize="10" guides="1" tooltips="1" connect="1" arrows="1" fold="1" page="1" pageScale="1" pageWidth="827" pageHeight="1169" math="0" shadow="0">
      <root>
        <mxCell id="0" />
        <mxCell id="1" parent="0" />
        <mxCell id="MbnsCtpqDb8oaPAf5bHN-2" value="UI" style="swimlane;whiteSpace=wrap;html=1;" vertex="1" parent="1">
          <mxGeometry x="-800" y="40" width="630" height="1040" as="geometry">
            <mxRectangle x="-800" y="40" width="140" height="30" as="alternateBounds" />
          </mxGeometry>
        </mxCell>
        <mxCell id="MbnsCtpqDb8oaPAf5bHN-3" value="Controle" style="swimlane;whiteSpace=wrap;html=1;" vertex="1" parent="1">
          <mxGeometry x="-120" y="40" width="420" height="1040" as="geometry">
            <mxRectangle x="90" y="40" width="90" height="30" as="alternateBounds" />
          </mxGeometry>
        </mxCell>
        <mxCell id="MbnsCtpqDb8oaPAf5bHN-4" value="Systeme" style="swimlane;whiteSpace=wrap;html=1;" vertex="1" parent="1">
          <mxGeometry x="320" y="40" width="480" height="1040" as="geometry" />
        </mxCell>
        <mxCell id="MbnsCtpqDb8oaPAf5bHN-5" value="" style="ellipse;fillColor=strokeColor;html=1;" vertex="1" parent="MbnsCtpqDb8oaPAf5bHN-4">
          <mxGeometry x="-1000" y="150" width="30" height="30" as="geometry" />
        </mxCell>
        <mxCell id="MbnsCtpqDb8oaPAf5bHN-6" value="" style="html=1;verticalAlign=bottom;labelBackgroundColor=none;endArrow=block;endFill=1;rounded=0;exitX=0.5;exitY=1;exitDx=0;exitDy=0;" edge="1" parent="MbnsCtpqDb8oaPAf5bHN-4" source="MbnsCtpqDb8oaPAf5bHN-5">
          <mxGeometry width="160" relative="1" as="geometry">
            <mxPoint x="-960" y="410" as="sourcePoint" />
            <mxPoint x="-985" y="230" as="targetPoint" />
          </mxGeometry>
        </mxCell>
        <mxCell id="MbnsCtpqDb8oaPAf5bHN-7" value="&lt;span style=&quot;font-size: 13px;&quot;&gt;A L&#39;initiation de la commande d&#39;une MOJ&lt;/span&gt;" style="text;html=1;align=center;verticalAlign=middle;whiteSpace=wrap;rounded=0;" vertex="1" parent="MbnsCtpqDb8oaPAf5bHN-4">
          <mxGeometry x="-1090" y="100" width="80" height="90" as="geometry" />
        </mxCell>
        <mxCell id="MbnsCtpqDb8oaPAf5bHN-8" value="&lt;font style=&quot;font-size: 14px;&quot;&gt;Remplir le Formulaire de Commande de la MOJ&lt;/font&gt;" style="html=1;align=center;verticalAlign=top;rounded=1;absoluteArcSize=1;arcSize=10;dashed=0;whiteSpace=wrap;" vertex="1" parent="MbnsCtpqDb8oaPAf5bHN-4">
          <mxGeometry x="-1050" y="230" width="140" height="70" as="geometry" />
        </mxCell>
        <mxCell id="MbnsCtpqDb8oaPAf5bHN-9" value="Message D&#39;erreur" style="swimlane;fontStyle=1;align=center;verticalAlign=middle;childLayout=stackLayout;horizontal=1;startSize=30;horizontalStack=0;resizeParent=0;resizeLast=1;container=0;fontColor=#000000;collapsible=0;rounded=1;arcSize=30;strokeColor=#ff0000;fillColor=#ffffff;swimlaneFillColor=#ffffff;dropTarget=0;labelBorderColor=none;labelBackgroundColor=none;" vertex="1" parent="MbnsCtpqDb8oaPAf5bHN-4">
          <mxGeometry x="-960" y="340" width="160" height="60" as="geometry" />
        </mxCell>
        <mxCell id="MbnsCtpqDb8oaPAf5bHN-10" value="Le nom de Qualification est requis" style="text;html=1;strokeColor=none;fillColor=none;align=center;verticalAlign=middle;spacingLeft=4;spacingRight=4;whiteSpace=wrap;overflow=hidden;rotatable=0;fontColor=#000000;" vertex="1" parent="MbnsCtpqDb8oaPAf5bHN-9">
          <mxGeometry y="30" width="160" height="30" as="geometry" />
        </mxCell>
        <mxCell id="MbnsCtpqDb8oaPAf5bHN-11" value="Message D&#39;erreur" style="swimlane;fontStyle=1;align=center;verticalAlign=middle;childLayout=stackLayout;horizontal=1;startSize=30;horizontalStack=0;resizeParent=0;resizeLast=1;container=0;fontColor=#000000;collapsible=0;rounded=1;arcSize=30;strokeColor=#ff0000;fillColor=#ffffff;swimlaneFillColor=#ffffff;dropTarget=0;labelBorderColor=none;labelBackgroundColor=none;" vertex="1" parent="MbnsCtpqDb8oaPAf5bHN-4">
          <mxGeometry x="-960" y="420" width="160" height="80" as="geometry" />
        </mxCell>
        <mxCell id="MbnsCtpqDb8oaPAf5bHN-12" value="Le Nombre de MOJ est requis" style="text;html=1;strokeColor=none;fillColor=none;align=center;verticalAlign=middle;spacingLeft=4;spacingRight=4;whiteSpace=wrap;overflow=hidden;rotatable=0;fontColor=#000000;" vertex="1" parent="MbnsCtpqDb8oaPAf5bHN-11">
          <mxGeometry y="30" width="160" height="50" as="geometry" />
        </mxCell>
        <mxCell id="MbnsCtpqDb8oaPAf5bHN-13" value="&lt;div&gt;&lt;span style=&quot;font-size: 18px;&quot;&gt;Clique&lt;/span&gt;&lt;/div&gt;&lt;font style=&quot;font-size: 18px;&quot;&gt;Ajouter&lt;/font&gt;" style="html=1;align=center;verticalAlign=top;rounded=1;absoluteArcSize=1;arcSize=10;dashed=0;whiteSpace=wrap;" vertex="1" parent="MbnsCtpqDb8oaPAf5bHN-4">
          <mxGeometry x="-770" y="237.5" width="100" height="55" as="geometry" />
        </mxCell>
        <mxCell id="MbnsCtpqDb8oaPAf5bHN-14" value="" style="html=1;verticalAlign=bottom;labelBackgroundColor=none;endArrow=block;endFill=1;rounded=0;exitX=1;exitY=0.5;exitDx=0;exitDy=0;entryX=0;entryY=0.5;entryDx=0;entryDy=0;" edge="1" parent="MbnsCtpqDb8oaPAf5bHN-4" source="MbnsCtpqDb8oaPAf5bHN-8" target="MbnsCtpqDb8oaPAf5bHN-13">
          <mxGeometry width="160" relative="1" as="geometry">
            <mxPoint x="-900" y="275" as="sourcePoint" />
            <mxPoint x="-810" y="265" as="targetPoint" />
          </mxGeometry>
        </mxCell>
        <mxCell id="MbnsCtpqDb8oaPAf5bHN-15" value="Action&#xa;Ajouter ?" style="rhombus;" vertex="1" parent="MbnsCtpqDb8oaPAf5bHN-4">
          <mxGeometry x="-320" y="140" width="90" height="80" as="geometry" />
        </mxCell>
        <mxCell id="MbnsCtpqDb8oaPAf5bHN-16" value="Condition&#xa;remplie ?" style="rhombus;" vertex="1" parent="MbnsCtpqDb8oaPAf5bHN-4">
          <mxGeometry x="-320" y="270" width="90" height="80" as="geometry" />
        </mxCell>
        <mxCell id="MbnsCtpqDb8oaPAf5bHN-17" value="Si non" style="text;html=1;align=center;verticalAlign=middle;whiteSpace=wrap;rounded=0;" vertex="1" parent="MbnsCtpqDb8oaPAf5bHN-4">
          <mxGeometry x="-390" y="280" width="60" height="30" as="geometry" />
        </mxCell>
        <mxCell id="MbnsCtpqDb8oaPAf5bHN-18" value="Si oui" style="text;html=1;align=center;verticalAlign=middle;whiteSpace=wrap;rounded=0;" vertex="1" parent="MbnsCtpqDb8oaPAf5bHN-4">
          <mxGeometry x="-230" y="280" width="60" height="30" as="geometry" />
        </mxCell>
        <mxCell id="MbnsCtpqDb8oaPAf5bHN-19" value="Vérifier La Saisie du Nombre de MOJ&lt;div&gt;Commandées&lt;/div&gt;" style="html=1;align=center;verticalAlign=top;rounded=1;absoluteArcSize=1;arcSize=10;dashed=0;whiteSpace=wrap;" vertex="1" parent="MbnsCtpqDb8oaPAf5bHN-4">
          <mxGeometry x="61" y="287" width="140" height="50" as="geometry" />
        </mxCell>
        <mxCell id="MbnsCtpqDb8oaPAf5bHN-20" value="Enregistrer La Commande" style="html=1;align=center;verticalAlign=top;rounded=1;absoluteArcSize=1;arcSize=10;dashed=0;whiteSpace=wrap;" vertex="1" parent="MbnsCtpqDb8oaPAf5bHN-4">
          <mxGeometry x="51" y="437" width="140" height="40" as="geometry" />
        </mxCell>
        <mxCell id="MbnsCtpqDb8oaPAf5bHN-21" value="Vérifie La Saisie du Nom de Qualification Commandée" style="html=1;align=center;verticalAlign=top;rounded=1;absoluteArcSize=1;arcSize=10;dashed=0;whiteSpace=wrap;" vertex="1" parent="MbnsCtpqDb8oaPAf5bHN-4">
          <mxGeometry x="40" y="140" width="140" height="50" as="geometry" />
        </mxCell>
        <mxCell id="MbnsCtpqDb8oaPAf5bHN-22" value="" style="ellipse;html=1;shape=endState;fillColor=strokeColor;" vertex="1" parent="MbnsCtpqDb8oaPAf5bHN-4">
          <mxGeometry x="280" y="440" width="52" height="50" as="geometry" />
        </mxCell>
        <mxCell id="MbnsCtpqDb8oaPAf5bHN-23" value="" style="html=1;verticalAlign=bottom;labelBackgroundColor=none;endArrow=block;endFill=1;rounded=0;" edge="1" parent="MbnsCtpqDb8oaPAf5bHN-4">
          <mxGeometry width="160" relative="1" as="geometry">
            <mxPoint x="192" y="460" as="sourcePoint" />
            <mxPoint x="282" y="460" as="targetPoint" />
          </mxGeometry>
        </mxCell>
        <mxCell id="MbnsCtpqDb8oaPAf5bHN-24" value="" style="html=1;verticalAlign=bottom;labelBackgroundColor=none;endArrow=block;endFill=1;rounded=0;entryX=0;entryY=0.75;entryDx=0;entryDy=0;" edge="1" parent="MbnsCtpqDb8oaPAf5bHN-4" target="MbnsCtpqDb8oaPAf5bHN-21">
          <mxGeometry width="160" relative="1" as="geometry">
            <mxPoint x="-230" y="180" as="sourcePoint" />
            <mxPoint x="-70" y="180" as="targetPoint" />
          </mxGeometry>
        </mxCell>
        <mxCell id="MbnsCtpqDb8oaPAf5bHN-25" value="" style="html=1;verticalAlign=bottom;labelBackgroundColor=none;endArrow=block;endFill=1;rounded=0;entryX=0.5;entryY=0;entryDx=0;entryDy=0;exitX=0.571;exitY=1;exitDx=0;exitDy=0;exitPerimeter=0;" edge="1" parent="MbnsCtpqDb8oaPAf5bHN-4" source="MbnsCtpqDb8oaPAf5bHN-21" target="MbnsCtpqDb8oaPAf5bHN-16">
          <mxGeometry width="160" relative="1" as="geometry">
            <mxPoint x="60" y="260" as="sourcePoint" />
            <mxPoint x="130" y="260" as="targetPoint" />
            <Array as="points">
              <mxPoint x="120" y="230" />
              <mxPoint x="-275" y="230" />
            </Array>
          </mxGeometry>
        </mxCell>
        <mxCell id="MbnsCtpqDb8oaPAf5bHN-26" value="" style="html=1;verticalAlign=bottom;labelBackgroundColor=none;endArrow=block;endFill=1;rounded=0;exitX=1;exitY=0.5;exitDx=0;exitDy=0;exitPerimeter=0;" edge="1" parent="MbnsCtpqDb8oaPAf5bHN-4" source="MbnsCtpqDb8oaPAf5bHN-16">
          <mxGeometry width="160" relative="1" as="geometry">
            <mxPoint x="-230" y="302" as="sourcePoint" />
            <mxPoint x="60" y="310" as="targetPoint" />
            <Array as="points">
              <mxPoint x="20" y="310" />
            </Array>
          </mxGeometry>
        </mxCell>
        <mxCell id="MbnsCtpqDb8oaPAf5bHN-27" value="" style="html=1;verticalAlign=bottom;labelBackgroundColor=none;endArrow=block;endFill=1;rounded=0;exitX=0;exitY=0.5;exitDx=0;exitDy=0;entryX=1;entryY=0;entryDx=0;entryDy=0;" edge="1" parent="MbnsCtpqDb8oaPAf5bHN-4" source="MbnsCtpqDb8oaPAf5bHN-16" target="MbnsCtpqDb8oaPAf5bHN-10">
          <mxGeometry width="160" relative="1" as="geometry">
            <mxPoint x="-320" y="299" as="sourcePoint" />
            <mxPoint x="-860" y="340" as="targetPoint" />
            <Array as="points">
              <mxPoint x="-430" y="310" />
              <mxPoint x="-430" y="370" />
              <mxPoint x="-610" y="370" />
            </Array>
          </mxGeometry>
        </mxCell>
        <mxCell id="MbnsCtpqDb8oaPAf5bHN-28" value="Condition&#xa;remplie ?" style="rhombus;" vertex="1" parent="MbnsCtpqDb8oaPAf5bHN-4">
          <mxGeometry x="-309" y="417" width="90" height="80" as="geometry" />
        </mxCell>
        <mxCell id="MbnsCtpqDb8oaPAf5bHN-29" value="" style="html=1;verticalAlign=bottom;labelBackgroundColor=none;endArrow=block;endFill=1;rounded=0;entryX=0.5;entryY=0;entryDx=0;entryDy=0;exitX=0.571;exitY=1;exitDx=0;exitDy=0;exitPerimeter=0;" edge="1" parent="MbnsCtpqDb8oaPAf5bHN-4" target="MbnsCtpqDb8oaPAf5bHN-28">
          <mxGeometry width="160" relative="1" as="geometry">
            <mxPoint x="131" y="337" as="sourcePoint" />
            <mxPoint x="141" y="407" as="targetPoint" />
            <Array as="points">
              <mxPoint x="131" y="377" />
              <mxPoint x="-264" y="377" />
            </Array>
          </mxGeometry>
        </mxCell>
        <mxCell id="MbnsCtpqDb8oaPAf5bHN-30" value="Si non" style="text;html=1;align=center;verticalAlign=middle;whiteSpace=wrap;rounded=0;" vertex="1" parent="MbnsCtpqDb8oaPAf5bHN-4">
          <mxGeometry x="-379" y="427" width="60" height="30" as="geometry" />
        </mxCell>
        <mxCell id="MbnsCtpqDb8oaPAf5bHN-31" value="Si oui" style="text;html=1;align=center;verticalAlign=middle;whiteSpace=wrap;rounded=0;" vertex="1" parent="MbnsCtpqDb8oaPAf5bHN-4">
          <mxGeometry x="-219" y="427" width="60" height="30" as="geometry" />
        </mxCell>
        <mxCell id="MbnsCtpqDb8oaPAf5bHN-32" value="" style="html=1;verticalAlign=bottom;labelBackgroundColor=none;endArrow=block;endFill=1;rounded=0;exitX=1;exitY=0.5;exitDx=0;exitDy=0;exitPerimeter=0;" edge="1" parent="MbnsCtpqDb8oaPAf5bHN-4">
          <mxGeometry width="160" relative="1" as="geometry">
            <mxPoint x="-219" y="457" as="sourcePoint" />
            <mxPoint x="51" y="457" as="targetPoint" />
            <Array as="points" />
          </mxGeometry>
        </mxCell>
        <mxCell id="MbnsCtpqDb8oaPAf5bHN-33" value="" style="html=1;verticalAlign=bottom;labelBackgroundColor=none;endArrow=block;endFill=1;rounded=0;exitX=0;exitY=0.5;exitDx=0;exitDy=0;entryX=1;entryY=0.25;entryDx=0;entryDy=0;" edge="1" parent="MbnsCtpqDb8oaPAf5bHN-4" target="MbnsCtpqDb8oaPAf5bHN-12">
          <mxGeometry width="160" relative="1" as="geometry">
            <mxPoint x="-309" y="457" as="sourcePoint" />
            <mxPoint x="-770" y="460" as="targetPoint" />
            <Array as="points">
              <mxPoint x="-700" y="460" />
            </Array>
          </mxGeometry>
        </mxCell>
        <mxCell id="MbnsCtpqDb8oaPAf5bHN-34" value="" style="html=1;verticalAlign=bottom;labelBackgroundColor=none;endArrow=block;endFill=1;rounded=0;entryX=0;entryY=0.5;entryDx=0;entryDy=0;exitX=1;exitY=0.5;exitDx=0;exitDy=0;" edge="1" parent="MbnsCtpqDb8oaPAf5bHN-4" source="MbnsCtpqDb8oaPAf5bHN-13" target="MbnsCtpqDb8oaPAf5bHN-15">
          <mxGeometry width="160" relative="1" as="geometry">
            <mxPoint x="-670" y="290" as="sourcePoint" />
            <mxPoint x="-740" y="290" as="targetPoint" />
            <Array as="points">
              <mxPoint x="-520" y="265" />
              <mxPoint x="-520" y="180" />
            </Array>
          </mxGeometry>
        </mxCell>
      </root>
    </mxGraphModel>
  </diagram>
</mxfile>
